# xmcd CD database file
# Copyright (C) 1996 Ti Kan
#
# Track frame offsets:
# 	150
# 	11795
# 	26025
# 	44422
# 	56410
# 	71365
# 	84560
# 	98212
# 	112822
# 	131437
# 	148930
# 	162445
# 	181272
# 	197207
# 	209062
# 	222770
# 	234167
#
# Disc length: 3281 seconds
#
# Revision: 1
# Processed by: cddbd v1.4b41PL1 Copyright (c) Steve Scherf et al.
# Submitted via: DiscPlay 3.4.1
#
DISCID=f20ccf11
DTITLE=Don Walser And The Pure Texas Band - The Archive Series Vol. 2
DYEAR=1900
DGENRE=
TTITLE0=Yodel Polka
TTITLE1=Awaiting For A Train
TTITLE2=Side Men
TTITLE3=Two Stepping Lady
TTITLE4=Love Me
TTITLE5=Hill Country Waltz
TTITLE6=One More Drink
TTITLE7=Take Me Back To Tulsa
TTITLE8=All Around Cowboy
TTITLE9=Shelley's Winter Love
TTITLE10=Cowpoke
TTITLE11=Long Black Veil
TTITLE12=Begging To You
TTITLE13=Rolling Stone From Texas
TTITLE14=Austin Waltz
TTITLE15=Fraulein
TTITLE16=Red Skin Gal
EXTD=
EXTT0=
EXTT1=
EXTT2=
EXTT3=
EXTT4=
EXTT5=
EXTT6=
EXTT7=
EXTT8=
EXTT9=
EXTT10=
EXTT11=
EXTT12=
EXTT13=
EXTT14=
EXTT15=
EXTT16=
PLAYORDER=
